<?xml version="1.0" encoding="iso-8859-1"?>
<!-- Generator: Adobe Illustrator 19.0.0, SVG Export Plug-In . SVG Version: 6.00 Build 0)  -->
<svg version="1.1" id="Capa_1" xmlns="http://www.w3.org/2000/svg" xmlns:xlink="http://www.w3.org/1999/xlink" x="0px" y="0px"
	 viewBox="0 0 60 60" style="enable-background:new 0 0 60 60;" xml:space="preserve">
<path d="M38.914,0H6.5v60h47V14.586L38.914,0z M34.5,31c0,0.553-0.448,1-1,1h-10c-0.552,0-1-0.447-1-1s0.448-1,1-1h10
	C34.052,30,34.5,30.447,34.5,31z M16.262,23.479l0.32-0.741c0.291-0.674,0.769-1.207,1.382-1.541l2.204-1.087
	c-0.969-0.622-1.667-1.558-2.083-2.793c-0.684-0.417-1.115-1.158-1.115-1.984v-0.667c0-0.668,0.289-1.293,0.778-1.73
	c0.096-0.613,0.254-1.189,0.471-1.719c0.102-0.247,0.188-0.432,0.257-0.582c0.046-0.1,0.104-0.224,0.112-0.259
	c0.003-0.032-0.002-0.153-0.086-0.573c-0.065-0.327-0.108-0.627-0.138-0.884c-0.037-0.322,0.065-0.645,0.279-0.885
	c0.448-0.5,1.321-0.477,1.739,0.056c0.076,0.097,0.231,0.255,0.534,0.459c0.512,0.346,1.208,0.502,1.937,0.438
	c0.147-0.012,0.297-0.018,0.451-0.018c3.896,0,5.183,2.053,5.54,3.951c0.5,0.438,0.794,1.068,0.794,1.745v0.667
	c0,0.826-0.431,1.567-1.115,1.984c-0.418,1.24-1.12,2.178-2.095,2.801l2.122,1.083c0.632,0.317,1.135,0.848,1.447,1.531l0.344,0.752
	l-0.674,0.479C27.792,25.296,25.592,26,23.302,26c-2.298,0-4.505-0.709-6.384-2.052L16.262,23.479z M19.5,31
	c0,0.26-0.11,0.52-0.29,0.71C19.02,31.89,18.77,32,18.5,32s-0.53-0.11-0.71-0.3c-0.18-0.181-0.29-0.44-0.29-0.7
	c0-0.261,0.11-0.521,0.29-0.71c0.36-0.36,1.05-0.37,1.42,0C19.39,30.479,19.5,30.739,19.5,31z M17.5,36c0-0.553,0.448-1,1-1h17
	c0.552,0,1,0.447,1,1s-0.448,1-1,1h-17C17.948,37,17.5,36.553,17.5,36z M22.686,47.766c-0.031,0.918-1.045,1.262-1.707,0.707
	c-0.935-0.784-1.871-1.567-2.806-2.351c-0.99-0.83,0.433-2.237,1.414-1.415c0.414,0.347,0.828,0.693,1.241,1.04
	c0.268-2.261,1.005-4.441,3.196-5.582c1.142-0.594,2.154,1.132,1.009,1.727C22.863,43.023,22.759,45.599,22.686,47.766z
	 M37.637,46.259c-0.246-0.337-3.424,1.211-4.333,0.883c-0.713-0.257-1.248-0.585-1.697-1.067c-2.122,1.151-4.536,1.774-6.407-0.259
	c-0.871-0.947,0.539-2.365,1.414-1.414c1.489,1.619,3.34,0.369,4.756-0.5c0.458-0.281,1.106-0.109,1.368,0.359
	c1.034,1.843,3.535-0.242,4.992-0.132c0.773,0.059,1.209,0.542,1.632,1.121C40.126,46.293,38.389,47.289,37.637,46.259z
	 M41.21,36.71C41.02,36.89,40.76,37,40.5,37c-0.26,0-0.52-0.11-0.71-0.29C39.6,36.52,39.5,36.27,39.5,36
	c0-0.271,0.11-0.521,0.29-0.71c0.38-0.37,1.04-0.37,1.42,0c0.18,0.189,0.29,0.449,0.29,0.71C41.5,36.27,41.4,36.52,41.21,36.71z
	 M46.21,36.7C46.02,36.89,45.76,37,45.5,37c-0.26,0-0.52-0.11-0.71-0.29C44.6,36.52,44.5,36.27,44.5,36
	c0-0.271,0.11-0.521,0.29-0.71c0.38-0.37,1.04-0.37,1.42,0c0.18,0.189,0.29,0.449,0.29,0.71C46.5,36.26,46.4,36.51,46.21,36.7z
	 M45.5,32h-7c-0.552,0-1-0.447-1-1s0.448-1,1-1h7c0.552,0,1,0.447,1,1S46.052,32,45.5,32z M37.5,16V2l14,14H37.5z"/>
<g>
</g>
<g>
</g>
<g>
</g>
<g>
</g>
<g>
</g>
<g>
</g>
<g>
</g>
<g>
</g>
<g>
</g>
<g>
</g>
<g>
</g>
<g>
</g>
<g>
</g>
<g>
</g>
<g>
</g>
</svg>
